/* XPM */
static char *coin1670162619[] = {
/* columns rows colors chars-per-pixel */
"32 32 110 2 ",
"   c #010101",
".  c #080703",
"X  c #100F06",
"o  c #141207",
"O  c #161508",
"+  c #1E1B0B",
"@  c #211F0B",
"#  c #1F2317",
"$  c #1E2218",
"%  c #24220D",
"&  c #2E2C10",
"*  c #252B1C",
"=  c #333111",
"-  c #393513",
";  c #3E3A17",
":  c #403C17",
">  c #27432A",
",  c #28432A",
"<  c #4A461A",
"1  c #4E481C",
"2  c #534D1D",
"3  c #57511F",
"4  c #6C5B0F",
"5  c #69611F",
"6  c #565220",
"7  c #4D4B33",
"8  c #475337",
"9  c #495A3C",
"0  c #535137",
"q  c #565439",
"w  c #58543A",
"e  c #615C23",
"r  c #676124",
"t  c #6B6224",
"y  c #6A6428",
"u  c #6E6A29",
"i  c #716A27",
"p  c #746E29",
"a  c #7C752D",
"s  c #406D44",
"d  c #4A7E4F",
"f  c #827016",
"g  c #847C2D",
"h  c #4E8553",
"j  c #68B16F",
"k  c #6DBA75",
"l  c #72C37A",
"z  c #B49513",
"x  c #8E8533",
"c  c #948B34",
"v  c #9A8F33",
"b  c #979036",
"n  c #999136",
"m  c #9A9338",
"M  c #9F9939",
"N  c #A19738",
"B  c #A39B3A",
"V  c #A89C3B",
"C  c #ACA13C",
"Z  c #FCD72C",
"A  c #FDD933",
"S  c #F6DC3F",
"D  c #FDDD3B",
"F  c #FEE23D",
"G  c #FFE93E",
"H  c #999052",
"J  c #B6AB40",
"K  c #B9AE41",
"L  c #BCB243",
"P  c #A39E63",
"I  c #A7A26B",
"U  c #ABA56C",
"Y  c #B0AC76",
"T  c #C0B343",
"R  c #C4B944",
"E  c #CFC147",
"W  c #CCC64A",
"Q  c #D1C243",
"!  c #D2C64A",
"~  c #D7CB4F",
"^  c #D9CD4C",
"/  c #D8CE50",
"(  c #FDDD41",
")  c #E5D751",
"_  c #E8DD52",
"`  c #FEE442",
"'  c #FFE940",
"]  c #FFE74E",
"[  c #FFEA4E",
"{  c #FFF146",
"}  c #ECE355",
"|  c #E7E459",
" . c #F2E456",
".. c #FDE653",
"X. c #F6E956",
"o. c #FEED56",
"O. c #F5EA59",
"+. c #FEEB59",
"@. c #FFF356",
"#. c #FEF25A",
"$. c #FEFA5D",
"%. c #E5D160",
"&. c #FFFE62",
"*. c #FAF27E",
"=. c #EAE48C",
"-. c #F8F180",
";. c #FBF981",
":. c #FEFD8B",
">. c #EFEA92",
",. c #F0EA92",
/* pixels */
"l l l l l l l l l l l l l l l l l l l l l l l l l l l l l l l l ",
"l l l l l l l l l l l l l l l l l l l l l l l l l l l l l l l l ",
"l l l l l l l l l l l l l l l l l l l l l l l l l l l l l l l l ",
"l l l l l l l l l l k >                 > k l l l l l l l l l l ",
"l l l l l l l j h h d 8 7 7 0 q q 0 7 7 9 d h h j l l l l l l l ",
"l l l l l l k d * * * P >.=.=.=.=.=.=.>.P * # * d k l l l l l l ",
"l l l l l k s 8 I Y U %.+.+.+.+.+.+.+.o.%.U Y I 8 s k l l l l l ",
"l l l l j d 8 H -.:.-...D D D ` D D D D ..*.:.*.H 8 d j l l l l ",
"l l l l h * I *.( A D ] +.o.o.o.o.o.@.o.] D A D *.P * d l l l l ",
"l l l l d * Y :.A A { @.#.#.#.+.+.&.&.&.@.` Z A :.Y * h k l l l ",
"l l l k d * U *.D S  .o.o.+.o.@.o.o.O.O.O.@.` D ;.U * d k l l l ",
"l l l > 9 P %.o.[ v 3 L $.#.o.#.&.E 6 ; x #.$.....%.P 9 , l l l ",
"l l l   7 >.+.G @.y   c $.$.$._ J g 1 : r V / +.D +.,.7   l l l ",
"l l l   7 =.+.' @.u   b @.} $.! ; 1 / | c + a #.' +.=.7   l l l ",
"l l l   0 =.+.' o.u . J W t ! #.C K #.&.B . e @.' +.=.q   l l l ",
"l l l   q =.+.` @.u . g g X p ) $.&.#.) x = x @.` +.=.w   l l l ",
"l l l   q =.+.` #.u   . o     < ^ &.| r < R  .o.F +.=.w   l l l ",
"l l l   0 =.+.F +.J 2 ; % . @ i _ X.V 2 a #.&.o.( +.=.0   l l l ",
"l l l   7 =.+.D o.O._ } b + N o.O.C - B O.#.$.o.D +.=.7   l l l ",
"l l l   7 >.+.D +.&.#.&.C + T } p 3 C } &.$.#.o.D o.,.7   l l l ",
"l l l > 9 P %.+.] o.o.&.N O J ~ O O n B b M Q [ o.%.P 9 > l l l ",
"l l l k d * U -.D ( +.#.N + J / &         . f D ;.U * d k l l l ",
"l l l l h $ Y :.A Z ` #.! c /  .m p u u 5 4 z A :.Y $ h l l l l ",
"l l l l h * P *.D A S ] #.@.o.o.@.@.#.#.[ F A ` *.I * h l l l l ",
"l l l l j d 8 H -.:.*...F F D ( F ` G F @.;.:.*.H 8 d j l l l l ",
"l l l l l k s 8 I Y U %.+.+.+.+.+.+.+.+.%.U Y I 8 s k l l l l l ",
"l l l l l l k d * $ * P >.=.=.=.=.=.=.>.P * * * d k l l l l l l ",
"l l l l l l l j h h d 9 7 7 0 w q 0 7 7 9 d h h j l l l l l l l ",
"l l l l l l l l l l k >                 , k l l l l l l l l l l ",
"l l l l l l l l l l l l l l l l l l l l l l l l l l l l l l l l ",
"l l l l l l l l l l l l l l l l l l l l l l l l l k l l l l l l ",
"l l l l l l l l l l l l l l l l l l l l l l l l l l l l l l l l "
};
