/* XPM */
static char *door1670163599[] = {
/* columns rows colors chars-per-pixel */
"32 32 140 2 ",
"   c #040506",
".  c #0E1114",
"X  c #11161A",
"o  c #15191D",
"O  c #26150C",
"+  c #2D190D",
"@  c #341E11",
"#  c #342214",
"$  c #3C2515",
"%  c #3A2718",
"&  c #3D2919",
"*  c #3E301B",
"=  c #171C22",
"-  c #181E23",
";  c #1A2026",
":  c #1E252C",
">  c #2A2925",
",  c #20272E",
"<  c #2E2D2C",
"1  c #342A23",
"2  c #302F2E",
"3  c #31302F",
"4  c #252C34",
"5  c #273039",
"6  c #29323B",
"7  c #333130",
"8  c #3B3C3E",
"9  c #553F0D",
"0  c #4B2714",
"q  c #4A2D1B",
"w  c #522D19",
"e  c #45311F",
"r  c #4B301C",
"t  c #52351F",
"y  c #5C341B",
"u  c #4B3522",
"i  c #493F21",
"p  c #523520",
"a  c #533A26",
"s  c #583C25",
"d  c #653E23",
"f  c #5C451B",
"g  c #62481A",
"h  c #694125",
"j  c #63472C",
"k  c #6D4529",
"l  c #714729",
"z  c #71482A",
"x  c #7A4E2E",
"c  c #6F563E",
"v  c #745337",
"b  c #7E5332",
"n  c #7E5B3B",
"m  c #2B3742",
"M  c #2D3A45",
"N  c #2E3C48",
"B  c #313840",
"V  c #313E49",
"C  c #33414F",
"Z  c #354351",
"A  c #3A4653",
"S  c #394957",
"D  c #3C4C5B",
"F  c #3F5161",
"G  c #424B55",
"H  c #425464",
"J  c #4F5A65",
"K  c #435669",
"L  c #465A6D",
"P  c #495C6E",
"I  c #485D70",
"U  c #4C6175",
"Y  c #4F647A",
"T  c #546575",
"R  c #5D6976",
"E  c #51677C",
"W  c #636568",
"Q  c #717377",
"!  c #73767A",
"~  c #787A7F",
"^  c #907114",
"/  c #845735",
"(  c #865F3B",
")  c #876B28",
"_  c #9C7B20",
"`  c #8B623E",
"'  c #91633D",
"]  c #966740",
"[  c #966941",
"{  c #9B6C44",
"}  c #9F7046",
"|  c #A07147",
" . c #A6754A",
".. c #AA754A",
"X. c #AE794D",
"o. c #B47C4F",
"O. c #B47D50",
"+. c #F6C32B",
"@. c #BBA056",
"#. c #566E84",
"$. c #577087",
"%. c #5A748C",
"&. c #5D7790",
"*. c #767E86",
"=. c #667F96",
"-. c #76889C",
";. c #7B94AC",
":. c #82868B",
">. c #878A8E",
",. c #8B8E93",
"<. c #8F9297",
"1. c #93969A",
"2. c #989A9F",
"3. c #9C9EA3",
"4. c #829BB5",
"5. c #9CA0A5",
"6. c #8CA5BE",
"7. c #A8ABB0",
"8. c #B0B3B7",
"9. c #B4B7BC",
"0. c #8EA6C1",
"q. c #92AAC4",
"w. c #93ADCA",
"e. c #97B1CC",
"r. c #99B2CE",
"t. c #9BB5D1",
"y. c #9FB9D5",
"u. c #AFBCC8",
"i. c #A3BAD6",
"p. c #A4BDDA",
"a. c #BEC1C3",
"s. c #A6C0DD",
"d. c #A8C1DF",
"f. c #ACC5E3",
"g. c #C4C6CB",
"h. c #C8C9CD",
"j. c #C1CEDD",
"k. c #D1DAE5",
"l. c #D1DDEA",
"z. c #DFE9F4",
/* pixels */
"d.f.s.w.f.H P I P D &.$.%.P o m o D 4 &.&.L &.- K S A i.f.p.r.d.",
"t.t.t.0.G K I I P 5 V H K &.- P I L %.L M #.V H F L o -.y.t.6.t.",
"e.e.e.*.o I I I T 1 $ q t q @ r q + q p @ q > I m I I = u.w.w.r.",
"e.f.p.; #.o P D s x d ` ..{ k { ] y { ..x `  .v m I S 4 - p.r.e.",
"e.r.J E Z E 6 @ z ' / ' o.| l  .| y | O.b [ O.} $ D : S #.0.t.e.",
"e.i.B &.%.&.8 0 x o./ ] o.} l  .| y } O.b [ O.| d o &.&.#.R f.e.",
"p.p.S &.K C t 0 } o./ ' O.| l  .| y | O.b [ O.} d c L 6 &.. p.p.",
"l.k.. X X . k w | O./ [ O.| z  .| y | O.b [ O.} k (   X X . k.l.",
"r.i.C = 5 D z w { o./ ' O.| z  .| y | O.b [ O.} d ' E Z Z #.6.r.",
"d.i.S &.&.C z t | o./ { o.| z  .| y | O.b [ O.} d ` K &.$.  6.f.",
"i.y.%.&.&.P k w | o./ ' O.| z  .| y | O.b [ O.} k ( &.&.&.%.6.p.",
"r.q.; = ; o k w | o./ { O.} z  .| y } O.b [ O.{ d ] - - = = 4.t.",
"e.6.F H : C # O u s & e a u # u u + u a % u a u @ & H N D G 0.w.",
"e.r.K o P S <.5.1.<.:.7.,.,.h.<.,.9.,.,.<.3.,.>.g.~ m K = L 0.e.",
"e.6.P N P D ! Q Q ! ! Q Q Q ! ! ! Q ! ! Q Q ! ! Q W I I S L 0.e.",
"r.6.H K F Z k q { X./ ' X.} k | { y { X.v ] X.{ d ( K K K F i.t.",
"p.r.Y U E H z w | o./ { o.| l  .} y | O.b { o.{ h ` E E #.Y e.s.",
"z.k.4 Y =.I z w | o./ ' o.| l  .} s | O.b [ o._ @.n &.E = P k.z.",
"f.i.%.&.&.I z w | o./ ' O.| l  .| y | O.b ' j ^ +.i &.%.%.%.0.s.",
"f.0.#.%.%.L z w | o./ { o.| l  .| y | O.b { ( f * ) %.%.%.$.q.f.",
"f.i.Z Z Z 6 z w | o./ { O.| z  .| y | O./ ] O.g 9 v Z Z Z C 0.f.",
"w.4.H I P S z w | o./ ' o.| l  .| y | O.b ] O.| h ` P I P L ;.w.",
"y.w.M 6 , S z w | o./ { O.| l  .| y | O.b [ O.} h ` U D S ; q.y.",
"t.p.L I I S z w | o./ ' O.| l  .| y | O.b [ O.{ h ` I I I L 6.t.",
"e.0.6 6 6 : z w | O./ [ O.| l  .| y | O.b ] O.{ h ` 6 6 5 5 0.e.",
"r.i.%.&.=.L < < < < < < 2 2 < 2 < < 2 2 < 2 2 < < < I &.&.%.e.t.",
"t.q.6 D &.P ,.1.<.,.:.3.,.,.a.,.,.3.,.,.:.2.,.,.8.>.I %.P R 0.t.",
"l.j.&.%.&.L < < 7 7 2 7 3 3 2 3 2 < 3 3 2 3 7 3 < < I &.H %.f.l.",
"p.p.m m m 4 k w | o./ ] O.} l  .| y | o.b [ O.} h ` m m m m 6.d.",
"f.r.I I I S z w | o./ ] O.| l  .| y | O.b [ O.| h ` I I P L 6.f.",
"f.i.P M K D z w | O./ [ O.| l ..| y | o.b [ O.} h ` L V V L 6.f.",
"e.6.L K I D z w | o./ ] O.| l  .| y | O.b [ o.} h ` H I P L ;.r."
};
