/* XPM */
static char *stayondoor1670584330[] = {
/* columns rows colors chars-per-pixel */
"32 32 141 2 ",
"   c #040506",
".  c #0E1114",
"X  c #11161A",
"o  c #15191D",
"O  c #2A170D",
"+  c #341E11",
"@  c #342214",
"#  c #3C2515",
"$  c #3E301B",
"%  c #0B0B22",
"&  c #171C22",
"*  c #181E23",
"=  c #371A2E",
"-  c #1A2026",
";  c #1E252C",
":  c #26282A",
">  c #2E2D2C",
",  c #342A23",
"<  c #302F2E",
"1  c #31302F",
"2  c #252C34",
"3  c #273039",
"4  c #29323B",
"5  c #333130",
"6  c #3B3C3E",
"7  c #5C0909",
"8  c #553F0D",
"9  c #4B2714",
"0  c #422B1A",
"q  c #4A2D1B",
"w  c #522D19",
"e  c #4B301C",
"r  c #52351F",
"t  c #5C351B",
"y  c #4A3522",
"u  c #493F21",
"i  c #543923",
"p  c #653E23",
"a  c #623133",
"s  c #5C451B",
"d  c #62481A",
"f  c #694025",
"g  c #68472B",
"h  c #714729",
"j  c #71482A",
"k  c #7A4F2E",
"l  c #6F563E",
"z  c #745337",
"x  c #7E5332",
"c  c #7E5B3B",
"v  c #252545",
"b  c #2B3742",
"n  c #2D3A45",
"m  c #2E3C48",
"M  c #313E49",
"N  c #33414F",
"B  c #354351",
"V  c #3A4653",
"C  c #394957",
"Z  c #3C4C5B",
"A  c #3F5161",
"S  c #434B54",
"D  c #444A67",
"F  c #425464",
"G  c #4F5B65",
"H  c #435669",
"J  c #465A6D",
"K  c #495C6E",
"L  c #485D70",
"P  c #4C6175",
"I  c #4F647A",
"U  c #596776",
"Y  c #51677C",
"T  c #52687E",
"R  c #636568",
"E  c #73767A",
"W  c #75777B",
"Q  c #811414",
"!  c #917114",
"~  c #8C4132",
"^  c #845735",
"/  c #865F3B",
"(  c #BA4F22",
")  c #876B29",
"_  c #9C7B20",
"`  c #8B623E",
"'  c #92613A",
"]  c #D26903",
"[  c #966740",
"{  c #966941",
"}  c #9B6C44",
"|  c #9F7046",
" . c #B66C4D",
".. c #A07147",
"X. c #A6754A",
"o. c #AA754B",
"O. c #AE784E",
"+. c #B47C4F",
"@. c #B47C50",
"#. c #FF747B",
"$. c #FFA300",
"%. c #F6C32B",
"&. c #BBA056",
"*. c #566E84",
"=. c #577087",
"-. c #5A748C",
";. c #5D7790",
":. c #5E7991",
">. c #767F86",
",. c #667F96",
"<. c #76889C",
"1. c #7B94AC",
"2. c #83878B",
"3. c #878A8E",
"4. c #8B8E93",
"5. c #93969A",
"6. c #9C9FA4",
"7. c #829AB4",
"8. c #8CA5BE",
"9. c #B0B3B6",
"0. c #FFA89E",
"q. c #FFD29E",
"w. c #FDCCB2",
"e. c #8EA6C1",
"r. c #92AAC4",
"t. c #93ADCA",
"y. c #97B1CC",
"u. c #99B2CE",
"i. c #9BB5D1",
"p. c #9FB9D5",
"a. c #AFBCC8",
"s. c #A3BAD6",
"d. c #A4BDDA",
"f. c #A7C0DD",
"g. c #A8C2DF",
"h. c #ACC5E3",
"j. c #C4C6CB",
"k. c #C1CEDD",
"l. c #D1DAE5",
"z. c #D1DDEA",
"x. c #DFE9F4",
/* pixels */
"g.h.f.t.h.F K L K Z ;.=.-.K o b & Z 2 -.-.K :.- F C S s.h.g.y.g.",
"i.i.i.e.S H L L K 3 M F H ;.* L L J -.L n *.N F Z J o <.p.u.8.i.",
"y.y.y.>.o L L L U , # 0 r e @ q q O q r + 0 : L b L L o a.t.y.y.",
"y.h.d.- *.o J Z i k p ` o.{ f ..{ t [ o.k ` o.z b K C 3 - d.y.y.",
"y.u.G *.B Y 4 + j ' ^ [ @...h X...t ..@.^ [ @.| # Z ; B T r.u.u.",
"y.s.4 :.-.:.6 9 k +.^ [ @...h X...t ..@.x [ @.| f o :.:.=.U h.u.",
"d.d.C -.H N r 9 } @.^ [ @...h X...t ..@.x [ @.| f l K 4 -.. d.d.",
"z.l.. X X . h w ..+.^ [ @...h X...t ..@.x [ @...p `   X X . l.z.",
"u.s.N & 3 Z j w ..+.^ { @...h X...i | @.x { @.| f ` Y B V *.8.u.",
"g.s.C -.:.B j w ..@./ ' = = = = a a a @.x { @.| f ` F ;.*.  8.h.",
"s.s.-.:.-.L h w ..+.^ =  .~ ~ ~ $.$.q.a x { @.| f ` ;.;.:.-.8.d.",
"u.t.& & * X h w ..+.=  . .~ ~ $.$.q.q.q.a { @.| f ` * * * & 7.i.",
"y.8.A A ; N @ O y = a  . . . .q.q.q.q.q.] a i y @ 0 F m Z Z 8.t.",
"y.u.H o J C 4.6.5.= a ~ ~  . .q.q.q.$.$.] a 4.3.j.W b H & J 8.y.",
"y.8.J N L C E E W = a a a a a ] ] ] $.$.] a E E E R L L V J r.y.",
"u.e.A H H B g q } = a a w.a a ] w.] ] $.] a O.} p / H H F F s.u.",
"d.i.I P Y A j w ..= w.a % a w.w.% ] ( w.( a @.} f ` T Y Y Y u.f.",
"x.l.2 I ,.L j w ..= w.a % w.w.w.% ] ( w.( a @._ &.c ;.Y - J l.x.",
"h.s.-.;.;.L j w ..= a a 0.w.w.w.0.] ( ( a { g ! %.u ;.;.;.=.e.f.",
"h.e.=.=.-.L j w ..@.= a 7 7 Q Q Q ] ( a x { ` s $ ) -.=.-.=.r.h.",
"h.d.M B B 4 j w ..+.^ a v v w.w.D ] Q @.x [ @.d 8 z B B B N e.h.",
"t.7.H L J C j w ..+.^ 7 v D D D D D w.Q x [ @.| f ` L L L J 1.r.",
"p.r.b b ; Z h w ..+.7 #.v D D D D D w.w.Q [ @.| f ` P Z C - t.i.",
"i.d.J L J Z h w ..7 #.#.7 w.w.w.w.7 w.w.w.Q @.| f ` L L L J e.i.",
"y.e.4 4 4 : j w ..7 7 7 v D D D D D Q w.w.Q @.| f ` 3 4 3 3 e.y.",
"u.d.-.:.;.L > > < > > > % v v D D D % Q Q Q > > : : P -.;.-.y.i.",
"i.r.4 Z ;.L 4.5.5.4.2.6.% v v % D D % 4.2.6.4.4.9.3.L -.L Y e.i.",
"z.k.;.-.;.L > > 1 5 < 1 1 % % % % % 1 5 > > 5 5 5 1 L :.F =.k.z.",
"d.d.b b b 2 g w ..+.^ [ @...h X...t ..@.x { @.| p [ b b b b 8.d.",
"h.u.L L L V j w ..+.^ [ @...h X...t ..@.x { @.| p / L L L J e.h.",
"h.s.K n H Z j w ..+.^ [ @...j X...t ..@.x { @.| p [ L M M K e.h.",
"u.8.J H L Z j w ..@.^ [ @...j X...t ..@.x { @.| p / A L K J 1.u."
};
