/* XPM */
static char *stay321670161395[] = {
/* columns rows colors chars-per-pixel */
"32 32 34 1 ",
"  c #0B0B22",
". c #0A0B23",
"X c #361A2E",
"o c #371A2E",
"O c #5C0909",
"+ c #5D0909",
"@ c #623132",
"# c #623133",
"$ c #633133",
"% c #242545",
"& c #444A66",
"* c #454A67",
"= c #444B67",
"- c #811414",
"; c #811514",
": c #8C4032",
"> c #8C4132",
", c #BA4F22",
"< c #D26903",
"1 c #B66C4D",
"2 c #B66D4D",
"3 c #FF757B",
"4 c #72C27A",
"5 c #72C37A",
"6 c #73C37A",
"7 c #72C37B",
"8 c #73C37B",
"9 c #FEA300",
"0 c #FFA300",
"q c #FFA89E",
"w c #FED29E",
"e c #FFD29F",
"r c #FCCCB2",
"t c #FDCDB2",
/* pixels */
"44667777775555555555555554566555",
"64667744775555555555555554556555",
"46667767777555554455556455555655",
"66665777777555556445576655555445",
"55455555755566666655545566645555",
"55455575575576667655555566445555",
"55555555555577665557555566545555",
"55555555555777665555555577555555",
"55557775555566664666777777555555",
"555566755555XXXX@@@4777577555555",
"45556455455X2:::99w@555555555555",
"5555666554X22::99www@55755555455",
"555555565X@2111eewee<@6755575555",
"555555565X@>:11eee99<@7755575555",
"555555555X@@@@@<<<99<@5555676655",
"555555555X@@r@@<t<<9<@5555456555",
"555777558Xr$ @rr.<,t,$6666555555",
"555676558Xr@ rrr.<,r,$6677555555",
"556754558X@@qrrrq<,,@46677555555",
"5545765588X@++---<,@777677555555",
"55555555864@%%tt&<-7776664665555",
"55557755664+%&&&&&t-486666655556",
"5557666444+3%&&=&*rr-44666556555",
"557746664+33OttttOrrt-4667555655",
"555555455OOO%===**;tt+5577555555",
"555555555555.%%=** ;;O5557555566",
"555555555555.%% == 8885555555566",
"5455555555556...  88885555555556",
"65556655555556668888555577555555",
"55556655555566668888555556555555",
"55557754555555666888555555776655",
"55557676555555666888555555777644"
};
