/* XPM */
static char *walk_right1671115110[] = {
/* columns rows colors chars-per-pixel */
"32 32 40 1 ",
"  c #131326",
". c #131227",
"X c #131327",
"o c #3A2032",
"O c #5C1010",
"+ c #5C1011",
"@ c #5C1111",
"# c #623436",
"$ c #623536",
"% c #623437",
"& c #623537",
"* c #2A2A46",
"= c #2A2A47",
"- c #464A67",
"; c #464B67",
": c #474B67",
"> c #801B1A",
", c #801A1B",
"< c #801B1B",
"1 c #8A4335",
"2 c #8B4335",
"3 c #B95027",
"4 c #D1680A",
"5 c #D1690A",
"6 c #D1690B",
"7 c #B56C4E",
"8 c #FF737A",
"9 c #72C37A",
"0 c #73C37A",
"q c #72C27B",
"w c #73C37B",
"e c #FFA200",
"r c #FFA300",
"t c #FFA69D",
"y c #FFD09D",
"u c #FFD19D",
"i c #FDCAB0",
"p c #FCCBB0",
"a c #FDCBB0",
"s c #FDCBB1",
/* pixels */
"99999999999999909999999999999999",
"9999999999999999999999999q999999",
"9999999999999999999999w9q9999999",
"99999999999999999999999999999qq9",
"99999909999999999999999999999999",
"99w999999999999999999999999099q9",
"999w009999999999909w9999999999q9",
"99999999999999999999w99999q99099",
"99999999999999999999999999999900",
"999999999q99$$$oooo9q9999qq09999",
"99999999999%yrr1227o9999909q9099",
"9w99999999%yyyrr2277o9099999q999",
"999999q99%4yyyyu7777%o999999999q",
"w99999999%4eeyyy7722%o9990999999",
"999999999%4ee444%&%%%o99q9999999",
"9999q9999%4e44s4%&s%%o9990999999",
"999999999$3s36Xss% &po9999999999",
"999999990$3s34Xsii %po999999w99w",
"99999999w9&336tsiit%&o999999999w",
"9999099999w%34<<@OO%o99999999999",
"909999999999@4;ss==$000999w99999",
"9999999w999<p;;:::=@0099999ww999",
"9999999900<pi;::::=8@00999999999",
"999909090<ppi@ssss@88@0999999999",
"909999999,ss,:::--=@@@ww99999999",
"99999w9w9,,, :;;==.99999999w9w99",
"999999999999 -;X==.9999999999999",
"90w9999999099XXX..w999999999999w",
"99q99w99999909999999999099999999",
"9999999w990999909999999q99999999",
"99999q999099999999999q9q99999999",
"99999q9w909099999999q9999wq99999"
};
